<svg id="visual" viewBox="0 0 900 600" width="900" height="600" xmlns="http://www.w3.org/2000/svg" xmlns:xlink="http://www.w3.org/1999/xlink" version="1.1"><rect x="0" y="0" width="900" height="600" fill="#5039d3"></rect><path d="M0 221L129 230L257 255L386 264L514 269L643 257L771 278L900 245L900 601L771 601L643 601L514 601L386 601L257 601L129 601L0 601Z" fill="#7174eb"></path><path d="M0 285L129 281L257 287L386 296L514 316L643 345L771 325L900 336L900 601L771 601L643 601L514 601L386 601L257 601L129 601L0 601Z" fill="#6e64dc"></path><path d="M0 398L129 340L257 385L386 387L514 345L643 337L771 376L900 376L900 601L771 601L643 601L514 601L386 601L257 601L129 601L0 601Z" fill="#6c53cd"></path><path d="M0 430L129 408L257 396L386 432L514 414L643 437L771 402L900 428L900 601L771 601L643 601L514 601L386 601L257 601L129 601L0 601Z" fill="#6a41bd"></path><path d="M0 503L129 498L257 476L386 495L514 504L643 483L771 471L900 468L900 601L771 601L643 601L514 601L386 601L257 601L129 601L0 601Z" fill="#672ead"></path><path d="M0 561L129 525L257 528L386 559L514 519L643 510L771 552L900 547L900 601L771 601L643 601L514 601L386 601L257 601L129 601L0 601Z" fill="#64159d"></path></svg>